<svg xmlns="http://www.w3.org/2000/svg" viewBox="0 0 50 62.5" x="0px" y="0px"><title>Noun_part2</title><g><path d="M25,45A14,14,0,0,0,39,31V19a14,14,0,0,0-28,0V31A14,14,0,0,0,25,45ZM13,19a12,12,0,0,1,24,0V31a12,12,0,0,1-24,0Z"/><path d="M24,24.5h.09l.2.21a1,1,0,0,0,1.42,0l.2-.21H26v-.09l5.71-5.7-1.42-1.42L26,21.59V11H24V21.59l-4.29-4.3-1.42,1.42L24,24.41Z"/></g><text x="0" y="65" fill="#000000" font-size="5px" font-weight="bold" font-family="'Helvetica Neue', Helvetica, Arial-Unicode, Arial, Sans-serif">Created by Pavani TLN</text><text x="0" y="70" fill="#000000" font-size="5px" font-weight="bold" font-family="'Helvetica Neue', Helvetica, Arial-Unicode, Arial, Sans-serif">from the Noun Project</text></svg>